<svg xmlns="http://www.w3.org/2000/svg" xmlns:xlink="http://www.w3.org/1999/xlink" width="353" zoomAndPan="magnify" viewBox="0 0 264.75 86.249997" height="115" preserveAspectRatio="xMidYMid meet" version="1.0"><defs><g/><clipPath id="65d53ed0de"><path d="M 1.015625 17.847656 L 45 17.847656 L 45 60.230469 L 1.015625 60.230469 Z M 1.015625 17.847656 " clip-rule="nonzero"/></clipPath><clipPath id="4ad4a4b155"><path d="M 11 32 L 53.808594 32 L 53.808594 56 L 11 56 Z M 11 32 " clip-rule="nonzero"/></clipPath></defs><g fill="#00357a" fill-opacity="1"><g transform="translate(48.056995, 58.959906)"><g><path d="M 26.25 -7.234375 L 10.5625 -7.234375 L 7.578125 0 L -0.4375 0 L 14.625 -33.78125 L 22.34375 -33.78125 L 37.4375 0 L 29.234375 0 Z M 23.78125 -13.171875 L 18.4375 -26.109375 L 13.078125 -13.171875 Z M 23.78125 -13.171875 "/></g></g></g><g fill="#00357a" fill-opacity="1"><g transform="translate(85.006319, 58.959906)"><g><path d="M 34.984375 -33.78125 L 34.984375 0 L 28.5625 0 L 11.71875 -20.5 L 11.71875 0 L 4 0 L 4 -33.78125 L 10.46875 -33.78125 L 27.265625 -13.265625 L 27.265625 -33.78125 Z M 34.984375 -33.78125 "/></g></g></g><g fill="#00357a" fill-opacity="1"><g transform="translate(123.981588, 58.959906)"><g><path d="M 11 -27.40625 L 0.1875 -27.40625 L 0.1875 -33.78125 L 29.625 -33.78125 L 29.625 -27.40625 L 18.8125 -27.40625 L 18.8125 0 L 11 0 Z M 11 -27.40625 "/></g></g></g><g fill="#00357a" fill-opacity="1"><g transform="translate(153.791877, 58.959906)"><g><path d="M 25.53125 0 L 19.015625 -9.40625 L 11.828125 -9.40625 L 11.828125 0 L 4 0 L 4 -33.78125 L 18.625 -33.78125 C 21.613281 -33.78125 24.207031 -33.28125 26.40625 -32.28125 C 28.613281 -31.28125 30.3125 -29.863281 31.5 -28.03125 C 32.695312 -26.195312 33.296875 -24.023438 33.296875 -21.515625 C 33.296875 -19.003906 32.691406 -16.835938 31.484375 -15.015625 C 30.273438 -13.203125 28.5625 -11.816406 26.34375 -10.859375 L 33.921875 0 Z M 25.375 -21.515625 C 25.375 -23.410156 24.765625 -24.863281 23.546875 -25.875 C 22.328125 -26.894531 20.539062 -27.40625 18.1875 -27.40625 L 11.828125 -27.40625 L 11.828125 -15.640625 L 18.1875 -15.640625 C 20.539062 -15.640625 22.328125 -16.148438 23.546875 -17.171875 C 24.765625 -18.203125 25.375 -19.648438 25.375 -21.515625 Z M 25.375 -21.515625 "/></g></g></g><g fill="#ff751f" fill-opacity="1"><g transform="translate(189.247212, 58.959906)"><g><path d="M 4 -33.78125 L 11.828125 -33.78125 L 11.828125 0 L 4 0 Z M 4 -33.78125 "/></g></g></g><g fill="#ff751f" fill-opacity="1"><g transform="translate(205.068852, 58.959906)"><g><path d="M 25.28125 0 L 17.125 -11.71875 L 9.125 0 L 0.140625 0 L 12.640625 -17.171875 L 0.765625 -33.78125 L 9.65625 -33.78125 L 17.421875 -22.828125 L 25.046875 -33.78125 L 33.484375 -33.78125 L 21.71875 -17.46875 L 34.3125 0 Z M 25.28125 0 "/></g></g></g><g clip-path="url(#65d53ed0de)"><path fill="#00357a" d="M 23.082031 43.746094 L 9.109375 33.183594 L 9.109375 60.113281 L 1.070312 60.113281 L 1.070312 17.851562 L 14.417969 27.941406 L 23.082031 34.492188 L 44.289062 18.15625 L 44.289062 27.710938 L 29.199219 39.117188 L 27.34375 40.523438 Z M 36.222656 47.984375 L 36.246094 60.113281 L 44.289062 60.113281 L 44.265625 41.90625 Z M 36.222656 47.984375 " fill-opacity="1" fill-rule="nonzero"/></g><g clip-path="url(#4ad4a4b155)"><path fill="#ff751f" d="M 41.726562 32.070312 L 23.082031 46.167969 L 11.167969 37.160156 L 11.167969 46.410156 L 23.082031 55.417969 L 53.964844 32.070312 Z M 41.726562 32.070312 " fill-opacity="1" fill-rule="nonzero"/></g></svg>